<svg width="29" height="29" viewBox="0 0 29 29" fill="none" xmlns="http://www.w3.org/2000/svg">
<path d="M14.4961 9.66461C11.8336 9.66461 9.6608 11.8375 9.6608 14.5C9.6608 17.1625 11.8336 19.3354 14.4961 19.3354C17.1586 19.3354 19.3314 17.1625 19.3314 14.5C19.3314 11.8375 17.1586 9.66461 14.4961 9.66461ZM28.9984 14.5C28.9984 12.4976 29.0165 10.5134 28.9041 8.51471C28.7916 6.19314 28.262 4.13275 26.5644 2.4351C24.8632 0.733824 22.8064 0.207844 20.4849 0.0953926C18.4826 -0.0170583 16.4984 0.00107896 14.4997 0.00107896C12.4974 0.00107896 10.5132 -0.0170583 8.51455 0.0953926C6.19302 0.207844 4.13267 0.737451 2.43505 2.4351C0.73381 4.13637 0.20784 6.19314 0.0953908 8.51471C-0.017058 10.5171 0.00107894 12.5013 0.00107894 14.5C0.00107894 16.4987 -0.017058 18.4866 0.0953908 20.4853C0.20784 22.8069 0.737438 24.8673 2.43505 26.5649C4.1363 28.2662 6.19302 28.7922 8.51455 28.9046C10.5169 29.0171 12.501 28.9989 14.4997 28.9989C16.502 28.9989 18.4862 29.0171 20.4849 28.9046C22.8064 28.7922 24.8668 28.2625 26.5644 26.5649C28.2656 24.8636 28.7916 22.8069 28.9041 20.4853C29.0201 18.4866 28.9984 16.5024 28.9984 14.5ZM14.4961 21.9399C10.379 21.9399 7.05634 18.6172 7.05634 14.5C7.05634 10.3828 10.379 7.0601 14.4961 7.0601C18.6132 7.0601 21.9359 10.3828 21.9359 14.5C21.9359 18.6172 18.6132 21.9399 14.4961 21.9399ZM22.2406 8.49294C21.2793 8.49294 20.503 7.71667 20.503 6.75539C20.503 5.79412 21.2793 5.01784 22.2406 5.01784C23.2018 5.01784 23.9781 5.79412 23.9781 6.75539C23.9784 6.98365 23.9336 7.20972 23.8464 7.42066C23.7592 7.6316 23.6312 7.82326 23.4698 7.98466C23.3084 8.14607 23.1168 8.27404 22.9058 8.36126C22.6949 8.44848 22.4688 8.49323 22.2406 8.49294Z" fill="white"/>
</svg>
