<svg width="32" height="38" viewBox="0 0 32 38" fill="none" xmlns="http://www.w3.org/2000/svg">
<path d="M12.6304 0.0220935L31.0304 3.58461C31.3035 3.63748 31.5495 3.78262 31.7264 3.9952C31.9033 4.20778 32 4.47458 32 4.74995V33.2501C32 33.5254 31.9033 33.7922 31.7264 34.0048C31.5495 34.2174 31.3035 34.3625 31.0304 34.4154L12.6304 37.9779C12.4566 38.0116 12.2774 38.0067 12.1057 37.9637C11.934 37.9207 11.774 37.8407 11.6373 37.7293C11.5006 37.6179 11.3904 37.4779 11.3148 37.3194C11.2392 37.1609 11.2 36.9878 11.2 36.8126V1.18743C11.2 1.01216 11.2392 0.839072 11.3148 0.680577C11.3904 0.522081 11.5006 0.382113 11.6373 0.270716C11.774 0.159318 11.934 0.079254 12.1057 0.0362686C12.2774 -0.00671683 12.4566 -0.0115578 12.6304 0.0220935ZM13.6 2.62985V35.3717L29.6 32.2747V5.72845L13.6 2.62985ZM9.6 3.95986V6.33328H2.4V31.6667H9.6V34.0417H1.2C0.909779 34.0417 0.629416 33.9375 0.410839 33.7486C0.192262 33.5596 0.050283 33.2987 0.0112 33.0141L0 32.8542V5.14578C1.22286e-05 4.85882 0.105029 4.58157 0.295628 4.3653C0.486227 4.14904 0.749514 4.00839 1.0368 3.96936L1.2 3.95828H9.6V3.95986ZM17.6 17.4182C18.0243 17.4182 18.4313 17.5851 18.7314 17.882C19.0314 18.1789 19.2 18.5817 19.2 19.0016C19.2 19.4215 19.0314 19.8242 18.7314 20.1212C18.4313 20.4181 18.0243 20.5849 17.6 20.5849C17.1757 20.5849 16.7687 20.4181 16.4686 20.1212C16.1686 19.8242 16 19.4215 16 19.0016C16 18.5817 16.1686 18.1789 16.4686 17.882C16.7687 17.5851 17.1757 17.4182 17.6 17.4182Z" fill="black"/>
</svg>
