<svg width="44" height="44" viewBox="0 0 44 44" fill="none" xmlns="http://www.w3.org/2000/svg">
<path fill-rule="evenodd" clip-rule="evenodd" d="M22 39.875C25.138 39.8796 28.2214 39.0542 30.9375 37.4825V31.625C30.9375 29.984 30.2856 28.4102 29.1252 27.2498C27.9648 26.0894 26.391 25.4375 24.75 25.4375H19.25C17.609 25.4375 16.0352 26.0894 14.8748 27.2498C13.7144 28.4102 13.0625 29.984 13.0625 31.625V37.4825C15.7786 39.0542 18.862 39.8796 22 39.875ZM35.0625 31.625V34.2018C37.4404 31.6561 39.0227 28.4711 39.6149 25.0383C40.207 21.6054 39.7832 18.0744 38.3955 14.8792C37.0078 11.684 34.7168 8.96393 31.8039 7.05332C28.8911 5.1427 25.4835 4.12484 22 4.12484C18.5165 4.12484 15.1089 5.1427 12.1961 7.05332C9.28325 8.96393 6.99218 11.684 5.6045 14.8792C4.21682 18.0744 3.793 21.6054 4.38513 25.0383C4.97727 28.4711 6.55956 31.6561 8.9375 34.2018V31.625C8.93748 29.4989 9.59424 27.4247 10.818 25.6861C12.0417 23.9475 13.7726 22.6294 15.774 21.912C14.7356 20.7176 14.0626 19.2497 13.8354 17.6833C13.6082 16.117 13.8364 14.5184 14.4927 13.0781C15.149 11.6379 16.2057 10.4168 17.5368 9.56061C18.868 8.70437 20.4173 8.24911 22 8.24911C23.5827 8.24911 25.132 8.70437 26.4632 9.56061C27.7943 10.4168 28.851 11.6379 29.5073 13.0781C30.1636 14.5184 30.3918 16.117 30.1646 17.6833C29.9374 19.2497 29.2644 20.7176 28.226 21.912C30.2274 22.6294 31.9583 23.9475 33.182 25.6861C34.4058 27.4247 35.0625 29.4989 35.0625 31.625ZM22 44C27.8348 44 33.4305 41.6822 37.5564 37.5564C41.6822 33.4305 44 27.8348 44 22C44 16.1652 41.6822 10.5695 37.5564 6.44365C33.4305 2.31785 27.8348 0 22 0C16.1652 0 10.5695 2.31785 6.44365 6.44365C2.31785 10.5695 0 16.1652 0 22C0 27.8348 2.31785 33.4305 6.44365 37.5564C10.5695 41.6822 16.1652 44 22 44ZM26.125 16.5C26.125 17.594 25.6904 18.6432 24.9168 19.4168C24.1432 20.1904 23.094 20.625 22 20.625C20.906 20.625 19.8568 20.1904 19.0832 19.4168C18.3096 18.6432 17.875 17.594 17.875 16.5C17.875 15.406 18.3096 14.3568 19.0832 13.5832C19.8568 12.8096 20.906 12.375 22 12.375C23.094 12.375 24.1432 12.8096 24.9168 13.5832C25.6904 14.3568 26.125 15.406 26.125 16.5Z" fill="black" fill-opacity="0.7"/>
</svg>
