<svg width="62" height="46" viewBox="0 0 62 46" fill="none" xmlns="http://www.w3.org/2000/svg">
<path d="M14.0917 18.3447C13.4024 18.3447 12.741 18.4492 12.0826 18.5444C12.2959 17.8315 12.5154 17.1063 12.8677 16.4549C13.2201 15.5085 13.7702 14.688 14.3173 13.8615C14.7747 12.9673 15.5814 12.3619 16.1749 11.5968C16.7961 10.8532 17.643 10.3584 18.3137 9.74081C18.972 9.09552 19.8344 8.77288 20.5205 8.3181C21.2376 7.90942 21.8619 7.45771 22.5295 7.24262L24.1955 6.56045L25.6605 5.95511L24.1615 0L22.3163 0.442484C21.7259 0.589979 21.0058 0.762056 20.1867 0.967934C19.3491 1.12158 18.4559 1.54255 17.4606 1.92665C16.4778 2.36299 15.3403 2.65798 14.2833 3.35858C13.2201 4.02846 11.993 4.58771 10.9112 5.48497C9.86345 6.40989 8.59931 7.21189 7.66589 8.38878C6.64592 9.48884 5.63832 10.6442 4.85635 11.9594C3.95075 13.2131 3.33568 14.5897 2.68661 15.951C2.09936 17.3122 1.62646 18.7042 1.24011 20.0562C0.507594 22.7665 0.179969 25.3415 0.053246 27.5447C-0.0518412 29.751 0.00997479 31.5854 0.139788 32.9129C0.18615 33.5397 0.272693 34.1482 0.334509 34.5691L0.411779 35.0854L0.492139 35.0669C1.04187 37.6199 2.30738 39.966 4.14226 41.8338C5.97715 43.7016 8.30643 45.0148 10.8607 45.6215C13.4149 46.2282 16.0897 46.1035 18.5757 45.262C21.0616 44.4205 23.2571 42.8964 24.9082 40.8662C26.5594 38.8359 27.5986 36.3825 27.9057 33.7896C28.2129 31.1966 27.7754 28.5703 26.6438 26.2142C25.5123 23.8582 23.7329 21.8688 21.5116 20.4761C19.2903 19.0835 16.7178 18.3445 14.0917 18.3447ZM48.0905 18.3447C47.4012 18.3447 46.7398 18.4492 46.0814 18.5444C46.2947 17.8315 46.5142 17.1063 46.8665 16.4549C47.2189 15.5085 47.769 14.688 48.3161 13.8615C48.7735 12.9673 49.5802 12.3619 50.1737 11.5968C50.7949 10.8532 51.6418 10.3584 52.3125 9.74081C52.9708 9.09552 53.8332 8.77288 54.5193 8.3181C55.2364 7.90942 55.8607 7.45771 56.5283 7.24262L58.1943 6.56045L59.6593 5.95511L58.1603 0L56.3151 0.442484C55.7247 0.589979 55.0046 0.762056 54.1855 0.967934C53.3479 1.12158 52.4547 1.54255 51.4594 1.92665C50.4797 2.36606 49.3391 2.65798 48.2821 3.36166C47.2189 4.03153 45.9918 4.59078 44.91 5.48804C43.8623 6.41296 42.5981 7.21496 41.6647 8.38878C40.6447 9.48884 39.6371 10.6442 38.8552 11.9594C37.9495 13.2131 37.3345 14.5897 36.6854 15.951C36.0982 17.3122 35.6253 18.7042 35.2389 20.0562C34.5064 22.7665 34.1788 25.3415 34.052 27.5447C33.947 29.751 34.0088 31.5854 34.1386 32.9129C34.185 33.5397 34.2715 34.1482 34.3333 34.5691L34.4106 35.0854L34.4909 35.0669C35.0407 37.6199 36.3062 39.966 38.1411 41.8338C39.9759 43.7016 42.3052 45.0148 44.8595 45.6215C47.4137 46.2282 50.0885 46.1035 52.5745 45.262C55.0604 44.4205 57.2559 42.8964 58.9071 40.8662C60.5582 38.8359 61.5974 36.3825 61.9045 33.7896C62.2117 31.1966 61.7742 28.5703 60.6426 26.2142C59.5111 23.8582 57.7317 21.8688 55.5104 20.4761C53.2891 19.0835 50.7166 18.3445 48.0905 18.3447Z" fill="white"/>
</svg>
