<svg width="29" height="29" viewBox="0 0 29 29" fill="none" xmlns="http://www.w3.org/2000/svg">
<path d="M28.5687 5.96549C27.5598 6.41258 26.4759 6.71466 25.3365 6.8512C26.5122 6.1477 27.3918 5.04047 27.8111 3.73612C26.7065 4.39223 25.4976 4.85406 24.2369 5.10153C23.3891 4.19633 22.2661 3.59634 21.0424 3.39473C19.8187 3.19312 18.5627 3.40116 17.4693 3.98655C16.3759 4.57194 15.5064 5.50193 14.9957 6.63213C14.4851 7.76234 14.3618 9.02952 14.6451 10.2369C12.4069 10.1246 10.2173 9.54282 8.2185 8.52946C6.21967 7.5161 4.45626 6.09377 3.0427 4.35478C2.55937 5.18853 2.28145 6.1552 2.28145 7.1847C2.28091 8.11149 2.50914 9.02408 2.94589 9.8415C3.38263 10.6589 4.01439 11.3559 4.78512 11.8706C3.89128 11.8422 3.01717 11.6007 2.23553 11.1662V11.2387C2.23544 12.5385 2.68507 13.7984 3.50813 14.8044C4.33119 15.8105 5.47697 16.5009 6.75107 16.7583C5.9219 16.9827 5.05257 17.0158 4.20874 16.855C4.56822 17.9734 5.26844 18.9515 6.21139 19.6522C7.15434 20.3529 8.29281 20.7412 9.46741 20.7627C7.47346 22.328 5.01094 23.1771 2.47599 23.1734C2.02695 23.1735 1.57829 23.1473 1.13232 23.0948C3.70544 24.7492 6.70074 25.6273 9.75982 25.6239C20.1152 25.6239 25.7763 17.0471 25.7763 9.60862C25.7763 9.36695 25.7702 9.12287 25.7594 8.8812C26.8605 8.08488 27.811 7.09878 28.5663 5.96912L28.5687 5.96549Z" fill="white"/>
</svg>
