<svg width="38" height="40" viewBox="0 0 38 40" fill="none" xmlns="http://www.w3.org/2000/svg">
<path d="M34.0003 0H13.9999C11.7938 0 9.9998 1.79404 9.9998 4.00009V15.1723L0.585587 24.5866C0.305962 24.8663 0.115545 25.2226 0.0384078 25.6105C-0.038729 25.9984 0.000877922 26.4005 0.152221 26.7659C0.303565 27.1313 0.55985 27.4437 0.888677 27.6634C1.2175 27.8832 1.60411 28.0005 1.99962 28.0006V38.0009C1.99962 38.5313 2.21034 39.04 2.58542 39.4151C2.9605 39.7902 3.46922 40.0009 3.99966 40.0009H36.0004C36.5308 40.0009 37.0396 39.7902 37.4146 39.4151C37.7897 39.04 38.0004 38.5313 38.0004 38.0009V4.00009C38.0004 1.79404 36.2064 0 34.0003 0ZM18 36.0008H5.99971V24.8286L11.9998 18.8284L18 24.8286V36.0008ZM34.0003 36.0008H22.0001V28.0006C22.396 28.0015 22.7833 27.8847 23.1127 27.6651C23.4422 27.4455 23.699 27.133 23.8505 26.7672C24.002 26.4013 24.0414 25.9988 23.9637 25.6105C23.886 25.2223 23.6947 24.8659 23.4141 24.5866L13.9999 15.1723V4.00009H34.0003V36.0008Z" fill="black"/>
<path d="M17.9999 8H22V12.0001H17.9999V8ZM26.0001 8H30.0002V12.0001H26.0001V8ZM26.0001 16.0622H30.0002V20.0003H26.0001V16.0622ZM26.0001 24.0004H30.0002V28.0005H26.0001V24.0004ZM9.99976 26.0004H13.9998V30.0005H9.99976V26.0004Z" fill="black"/>
</svg>
